# xmcd
#
# Track frame offsets: 
#        150
#        19279
#        37795
#        56227
#        72808
#        91815
#        110769
#        127232
#        139732
#        155401
#        174258
#        194548
#
# Disc length: 2837 seconds
#
# Revision: 0
# Processed by: cddbd v1.5.2PL0 Copyright (c) Steve Scherf et al.
# Submitted via: ExactAudioCopyFreeDBPlugin 1.0
#
DISCID=a70b130c
DTITLE=Mhing and Fun - Two for Tea
DYEAR=2014
DGENRE=Easy Listening
TTITLE0=ได้โปรดเถิด Besame Mucho
TTITLE1=เธอแสนดี Pepito
TTITLE2=รักนั้น Frenesi
TTITLE3=รักแท้ Amor Amor Amor
TTITLE4=รักชั่วคราว Historia De Un Amor
TTITLE5=ส่งใจ Perfidia
TTITLE6=อารมณ์เพลง Quien Sera
TTITLE7=แต่งงานได้ไหม Quizas Quizas Quizas
TTITLE8=รักนะรัก Solamente Una Vez
TTITLE9=ฝากไว้แด่เธอ Sabor A Mi
TTITLE10=Besame Mucho (Instrumental)
TTITLE11=Pepito (Instrumental)
EXTD=
EXTT0=
EXTT1=
EXTT2=
EXTT3=
EXTT4=
EXTT5=
EXTT6=
EXTT7=
EXTT8=
EXTT9=
EXTT10=
EXTT11=
PLAYORDER=
